<svg width="114" height="298" viewBox="0 0 114 298" fill="none" xmlns="http://www.w3.org/2000/svg">
<path d="M6.50608 0C21.3149 3.9439 29.9086 10.6654 34.7886 15.6221C59.342 40.4672 62.7949 93.3491 50.5028 122.184C48.738 126.327 43.5357 137.254 47.7559 141.904C50.2879 144.681 55.7511 144.758 59.4648 142.916C68.3501 138.527 68.7951 122.399 68.8411 110.982C69.01 49.598 57.4084 26.2415 68.3961 17.4023C78.5244 9.26893 103.139 17.2028 111.073 31.2443C114.357 37.0604 113.574 41.8022 112.945 55.8591C111.288 92.5665 115.677 92.4437 112.638 108.695C107.666 135.32 98.1825 134.783 93.5941 157.695C89.7423 176.954 97.8603 210.316 101.743 230.511C107.037 258.057 112.454 286.216 100.208 294.672C95.2208 298.125 88.2077 297.649 74.4117 296.713C60.7846 295.792 53.9556 295.317 49.9657 291.956C30.7833 275.797 72.2633 205.344 58.6515 196.535C55.2907 194.356 49.536 196.581 46.5589 198.944C40.6814 203.625 42.9373 211.144 41.1264 228.992C39.4077 246.01 36.8296 244.307 34.7886 263.443C33.2847 277.623 34.2975 282.227 30.9521 284.482C27.2384 286.984 19.1818 285.971 0.214256 270.932C2.3013 180.606 4.40369 90.2953 6.50608 0Z" fill="#1F1300"/>
</svg>
