<svg width="159" height="291" viewBox="0 0 159 291" fill="none" xmlns="http://www.w3.org/2000/svg">
<path d="M145.892 162.428C141.626 155.523 130.715 141.174 118.899 136.463C106.469 128.775 98.1512 128.1 97.5066 123.22C96.6166 116.437 121.385 112.923 135.181 95.7199C155.453 70.4452 147.35 19.9725 125.16 8.84672C119.774 6.14584 118.945 8.47841 97.3225 8.17149C74.7487 7.84923 52.9882 4.99488 40.9723 3.41425C17.9995 0.406457 13.1042 -1.61921 9.06819 2.06381C0.474478 9.90556 9.91221 30.6839 16.0199 50.7717C29.2634 94.308 35.9542 164.439 14.4853 219.822C6.33661 240.831 -5.23421 258.141 2.94516 270.909C5.07824 274.254 9.00681 277.968 35.5245 283.124C72.1859 290.275 96.4171 294.633 122.106 282.357C126.495 280.254 130.193 278.49 134.644 274.945C169.464 247.291 158.952 183.56 145.892 162.428ZM57.1929 233.096C43.3049 219.715 49.2591 197.878 55.7658 186.875C61.0755 177.897 73.7205 164.408 86.3195 167.523C98.6422 170.577 102.893 187.519 104.642 194.517C106.607 202.328 112.254 224.856 97.5066 236.273C86.1353 245.082 67.7356 243.24 57.1929 233.096ZM92.9029 94.6764C86.1046 93.817 80.9177 86.8346 79.0916 80.865C73.3062 61.9896 95.9567 36.7763 106.714 39.4311C113.083 40.9964 115.569 52.383 116.367 56.02C118.607 66.2404 115.231 74.4504 113.819 77.4122C113.282 78.5325 104.627 96.1649 92.9029 94.6764Z" fill="#1F1300"/>
</svg>
