<svg width="205" height="324" viewBox="0 0 205 324" fill="none" xmlns="http://www.w3.org/2000/svg">
<path d="M181.085 22.0076C176.727 20.5498 174.379 22.1611 167.335 19.9666C151.391 14.9945 150.041 2.36487 140.695 0.753552C128.48 -1.36418 124.735 19.1379 104.878 27.4708C80.2934 37.7679 60.1136 17.2197 49.2026 27.6089C40.9772 35.4506 53.5302 48.2031 48.1898 80.5676C45.6424 96.0209 44.7984 112.119 33.427 124.349C19.4776 139.358 1.07788 137.946 0.847689 145.22C0.586809 152.954 21.3958 154.059 37.5397 172.72C45.5349 181.958 48.6655 191.212 51.351 199.437C66.7583 246.626 39.2278 272.422 54.6504 298.341C70.3339 324.69 114.177 323.938 120.408 323.739C127.942 323.493 156.21 321.621 177.54 301.058C195.802 283.456 198.549 254.621 203.276 197.672C205.808 167.18 204.411 138.284 200.958 80.5676C199.853 62.4594 197.444 27.5168 181.085 22.0076ZM148.015 171.814C144.056 209.535 144.086 220.86 134.204 227.06C122.326 234.518 107.425 227.474 106.581 227.06C86.1249 217.023 82.0582 185.242 92.7696 171.814C100.903 161.625 112.919 167.84 120.392 158.003C132.531 142.028 109.343 114.513 120.392 102.758C126.331 96.4353 140.327 96.6808 148.015 102.758C155.979 109.05 153.524 119.469 148.015 171.814Z" fill="#1F1300"/>
</svg>
