<svg width="157" height="299" viewBox="0 0 157 299" fill="none" xmlns="http://www.w3.org/2000/svg">
<path d="M34.1178 7.75428C34.1178 7.75428 25.8157 12.5729 19.8615 20.6601C5.55908 40.0727 14.1681 72.8209 16.9918 113.38C18.5417 135.678 17.7437 152.006 16.9918 168.625C13.4622 247.212 -9.46457 278.686 6.32637 292.927C18.3422 303.761 46.6247 299.311 61.28 285.423C84.882 263.033 70.6564 218.346 91.6956 210.059C92.601 209.706 98.9696 207.19 102.361 210.059C114.269 220.126 67.5105 277.842 81.0149 292.927C88.7799 301.598 117.277 297.193 129.017 280.927C147.386 255.468 114.837 214.617 134.373 190.984C137.519 187.179 145.284 177.71 152.419 162.594C153.801 159.679 154.89 156.211 155.596 151.653C158.604 132.025 145.498 102.316 140.649 90.5454C120.853 42.5741 137.933 11.8977 119.656 2.99704C110.955 -1.23843 97.5424 1.04808 89.1022 8.42946C64.9477 29.5454 99.1538 77.1331 81.0149 149.535C79.0353 157.423 69.9965 191.491 59.6687 190.969C54.9115 190.723 50.7528 183.403 49.0033 177.158C42.4813 153.924 59.9296 136.598 70.3495 108.101C87.3834 61.5263 75.3676 7.09438 57.8733 1.63123C49.2795 -1.03895 35.5603 6.9256 34.1178 7.75428Z" fill="#1F1300"/>
</svg>
