<svg width="92" height="320" viewBox="0 0 92 320" fill="none" xmlns="http://www.w3.org/2000/svg">
<path d="M64.0126 113.617C76.3353 104.379 40.3952 48.6426 58.2425 28.7543C60.529 26.2069 64.4883 23.3679 71.8236 15.1732C77.3328 9.00415 81.3381 3.6177 83.7474 0.226257C84.9597 49.5633 86.172 98.8851 87.369 148.222C82.8113 149.388 77.164 151.706 74.5245 156.724C70.596 164.197 75.614 173.39 79.2817 182.183C83.5479 192.434 88.0596 207.15 89.3026 226.977C89.8857 250.733 90.4689 274.504 91.052 298.259C90.208 300.3 87.9215 305.042 83.0261 307.098C77.6704 309.354 71.885 307.283 69.7826 306.086C51.2141 295.497 79.7267 216.404 66.3912 210.695C64.2734 209.79 60.8052 210.603 58.5801 212.046C53.7768 215.192 53.2857 222.358 53.1476 225.965C52.0581 254.83 64.7952 298.781 50.769 313.544C44.4005 320.25 32.2926 321.171 24.2973 317.963C1.14037 308.648 -6.33308 256.994 8 218.844C17.4991 193.569 30.0828 191.467 32.4 169.599C34.84 146.611 22.8548 131.434 14.077 109.013C5.23773 86.4396 -3.72429 45.6041 14.123 29.4449C18.0362 25.9 26.5839 20.5136 33.1366 23.3372C52.6259 31.7314 29.9293 102.138 53.163 113.295C55.8178 114.553 60.928 115.934 64.0126 113.617Z" fill="#1F1300"/>
</svg>
