<svg width="116" height="333" viewBox="0 0 116 333" fill="none" xmlns="http://www.w3.org/2000/svg">
<path d="M55.7885 15.2471C46.3662 13.5744 38.816 11.1651 28.1659 7.77368C19.8024 5.11884 12.7433 2.49474 7.31083 0.346313C5.13171 96.7186 2.96794 193.091 0.788818 289.463C1.70957 293.929 4.60994 304.502 13.9249 311.239C19.8638 315.536 26.6313 316.978 31.5727 318.022C38.5244 319.495 42.1 320.262 44.4786 319.372C63.4922 312.344 48.4839 184.62 55.4509 179.648C58.2285 177.653 60.5304 178.113 60.5304 178.113C60.5304 178.113 61.9576 178.405 63.2006 179.648C68.142 184.589 49.0824 297.504 63.4922 321.413C65.303 324.421 68.8326 330.268 74.9402 331.649C79.1143 332.6 80.5722 330.59 89.8564 330.882C105.172 331.357 106.614 334.473 109.729 331.572C121.607 320.477 110.712 265.263 109.729 193.459C108.364 93.8796 124.262 45.8622 109.729 27.7234C107.596 25.0685 104.619 23.8102 104.619 23.8102C90.1173 14.3417 80.0044 19.544 55.7885 15.2471Z" fill="#1F1300"/>
</svg>
