<svg width="126" height="322" viewBox="0 0 126 322" fill="none" xmlns="http://www.w3.org/2000/svg">
<path d="M122.773 93.6069C125.674 56.5773 128.543 27.5121 113.504 12.4731C109.115 8.08419 102.271 6.71836 88.5826 3.98679C74.1728 1.10176 62.8629 -1.15407 49.0516 2.28342C39.3836 4.69272 23.5467 8.63664 12.8813 24.5503C7.14191 33.098 6.83497 44.1931 2.89107 107.418C0.144158 151.522 -2.46463 191.176 12.8813 204.097C24.2986 213.704 39.8594 205.647 42.8518 204.097C65.3489 192.435 70.8888 159.794 82.8126 162.663C87.846 163.876 92.4498 170.352 92.8028 176.475C93.877 194.752 57.4611 212.246 55.681 213.09C31.7721 224.323 23.1323 216.635 14.4312 229.387C4.54844 243.859 5.69939 268.458 9.64329 283.865C10.8096 288.439 17.0093 312.654 28.4267 314.419C39.5985 316.138 50.7089 295.559 64.1519 270.637C74.1881 252.023 79.7587 236.8 92.8028 231.735C94.1225 231.229 101.32 228.436 102.793 231.735C107.074 241.373 53.0875 278.418 61.5738 303.232C66.4231 317.427 92.0968 326.067 105.524 318.025C117.786 310.69 117.187 291.047 117.203 266.433C117.249 228.068 118.814 144.187 122.773 93.6069ZM79.1909 127.245C75.9222 144.371 54.6528 154.407 42.8518 148.852C35.8694 145.568 33.5522 137.466 32.8616 135.041C28.1044 118.406 38.4322 94.7579 52.842 93.6069C65.8707 92.5634 82.5056 109.858 79.1909 127.245Z" fill="#1F1300"/>
</svg>
