<svg width="150" height="323" viewBox="0 0 150 323" fill="none" xmlns="http://www.w3.org/2000/svg">
<path d="M60.3921 10.9362C27.9509 10.9362 10.3952 -0.54249 2.33857 9.23285C0.128759 11.9184 0.220819 14.2663 1.93956 39.587C4.04195 70.4937 4.39492 74.4375 8.04725 77.2612C19.2498 85.947 38.5702 66.78 46.5808 72.7956C61.6965 84.1362 14.4311 168.677 2.10834 263.484C0.297527 277.433 -2.24987 303.092 12.298 315.077C14.9836 317.287 21.0605 321.353 48.2842 321.86C80.4799 322.473 96.5778 322.765 103.269 317.102C126.917 297.091 92.1428 230.045 88.0147 128.025C87.6925 120.046 86.3267 78.2894 101.826 72.7802C106 71.307 108.133 73.5782 115.637 72.7802C127.3 71.5372 141.173 64.0024 146.544 52.3088C154.14 35.7506 144.58 12.3787 129.449 3.72363C111.939 -6.26655 100.092 10.9362 60.3921 10.9362Z" fill="#1F1300"/>
</svg>
