<svg width="182" height="316" viewBox="0 0 182 316" fill="none" xmlns="http://www.w3.org/2000/svg">
<path d="M104.393 3.64689C93.2517 2.94098 74.7292 5.6572 65.8592 17.5503C53.3216 34.3694 63.2658 55.1324 50.6514 71.66C48.0887 75.0207 44.7893 77.0924 43.5002 78.0132C30.1033 87.5737 18.732 84.7193 12.0258 87.6504C-4.53241 94.8783 0.132717 142.604 8.63435 200.351C22.0467 291.413 29.6736 303.675 41.9043 310.335C58.6927 319.481 78.8572 315.184 101.646 310.335C120.153 306.391 141.868 301.772 149.847 285.214C151.459 281.868 152.073 271.847 153.239 251.944C154.666 227.605 153.929 225.472 152.211 224.045C141.484 215.113 109.196 247.739 96.9654 238.531C90.8271 233.912 91.7785 220.208 96.9654 210.909C108.613 190.008 143.54 218.29 159.147 197.097C168.8 183.977 168.8 154.973 159.147 141.852C143.51 120.629 108.398 148.896 96.9654 128.041C92.6993 120.26 92.5918 107.247 96.9654 100.418C106.679 85.3025 137.678 111.667 159.147 100.418C188.565 84.9955 187.368 11.5807 166.82 2.1123C156.062 -2.82908 141.208 10.2457 112.94 5.02806C109.58 4.39888 107.938 3.87708 104.393 3.64689Z" fill="#1F1300"/>
</svg>
