<svg width="116" height="315" viewBox="0 0 116 315" fill="none" xmlns="http://www.w3.org/2000/svg">
<path d="M55.996 15.504C49.9497 11.0076 38.7319 13.7392 33.6217 18.9875C26.7621 26.0159 29.8313 38.6149 31.2738 47.9145C31.7342 50.861 29.6318 72.0383 25.4116 114.362C19.2733 175.991 -3.56145 240.137 0.689369 288.385C1.37993 296.288 3.16009 307.874 11.3702 312.447C17.9996 316.146 28.6343 315.148 34.9261 309.455C47.2949 298.252 42.1387 269.433 35.9082 234.705C33.4836 221.139 32.0871 211.18 36.3686 205.379C40.3739 199.946 49.6275 200.821 54.707 207.082C72.5389 229.073 36.5681 296.073 54.0471 309.255C60.9221 314.442 77.2501 310.851 115.078 281.648C112.776 187.946 110.489 94.2591 108.187 0.557007C102.908 2.95097 95.0667 6.14291 85.1532 8.70568C74.6413 11.4219 73.8894 10.3171 71.4494 11.9591C60.6765 19.2484 70.4058 44.2162 72.9532 85.4199C73.2755 90.6529 75.869 135.463 68.196 137.013C63.4388 137.98 56.5331 121.974 55.996 120.716C36.476 74.7852 70.1603 26.0466 55.996 15.504Z" fill="#1F1300"/>
</svg>
