<svg width="159" height="290" viewBox="0 0 159 290" fill="none" xmlns="http://www.w3.org/2000/svg">
<path d="M86.8129 5.53845C41.343 1.31832 35.8491 -2.41073 28.2529 3.46675C13.4748 14.9148 25.2758 34.2199 17.0504 83.91C11.3724 118.223 1.52035 120.541 0.753057 151.125C0.354063 167.238 3.07028 166.977 6.52311 198.314C12.508 252.7 5.41821 263.534 16.0222 273.325C16.0222 273.325 17.1732 274.368 18.5236 275.227C41.9875 290.22 75.2574 289.975 75.2574 289.975C103.325 289.775 117.52 289.668 128.047 278.404C140.416 265.176 143.961 240.576 133.096 229.312C126.206 222.177 115.433 221.578 112.256 221.409C95.3145 220.473 87.2272 231.277 81.3651 227.179C75.4416 223.036 76.1782 206.739 83.4214 202.181C90.4192 197.777 98.1535 207.659 113.269 207.491C126.252 207.337 138.851 199.864 145.173 191.531C164.985 165.473 139.603 109.706 112.333 104.197C98.2302 101.358 83.8511 111.993 77.8509 104.995C74.9351 101.588 74.6896 94.8363 77.8509 91.1839C85.2783 82.6209 104.906 98.7955 127.065 91.629C139.94 87.4702 147.276 77.7716 149.593 74.3955C161.732 56.6864 160.611 29.432 147.214 15.6667C138.974 7.24184 131.715 9.71253 86.8129 5.53845Z" fill="#1F1300"/>
</svg>
