<svg width="165" height="301" viewBox="0 0 165 301" fill="none" xmlns="http://www.w3.org/2000/svg">
<path d="M82.4141 7.70376C48.4076 4.14351 29.5014 -5.89271 14.4011 6.21521C10.227 9.56062 7.97112 13.2897 6.8969 15.1158C-2.93982 31.7048 -0.499821 58.8977 12.9892 65.8954C27.6139 73.4763 47.5943 58.821 54.4232 65.8954C61.0066 72.7244 46.9497 94.224 43.7731 99.3495C9.29087 154.902 7.08107 261.939 47.671 290.682C73.1759 308.744 122.053 300.473 141.358 275.06C165.988 242.65 145.44 178.504 130.83 132.942C120.794 101.636 107.06 71.2818 117.786 62.4733C127.577 54.432 149.153 71.4967 159.696 61.2149C167.983 53.1276 163.686 33.7458 163.088 31.0295C162.55 28.6049 161.077 21.9448 157.655 17.0801C147.22 2.27132 124.262 12.0773 82.4141 7.70376Z" fill="#1F1300"/>
</svg>
