<svg width="227" height="289" viewBox="0 0 227 289" fill="none" xmlns="http://www.w3.org/2000/svg">
<path d="M192.685 88.2832C178.781 81.3008 157.22 79.8736 147.568 89.9866C136.227 101.864 145.573 125.021 133.756 131.42C129.904 133.508 123.843 133.983 119.945 131.42C98.1692 117.118 151.005 12.9501 131.27 0.903577C129.674 -0.063215 129.858 0.934265 111.72 3.29753C104.338 4.26433 88.4091 6.35137 69.6258 7.3642C54.7556 8.17753 54.6328 7.42559 52.6532 8.71464C37.4608 18.7048 55.2927 56.2409 41.4507 66.3846C30.463 74.4258 11.1732 56.4404 3.27009 63.3307C-5.5845 71.0497 10.7435 99.9614 22.1149 130.546C53.6046 215.271 29.0819 266.541 61.3236 284.358C70.4237 289.376 84.0202 288.378 111.229 286.399C131.025 284.956 153.031 283.069 175.39 268.582C178.49 266.572 186.684 261.017 195.247 251.778C216.885 228.422 222.195 201.659 223.76 193.218C229.806 160.47 225.924 104.964 192.685 88.2832ZM171.292 190.625C162.223 191.009 155.056 179.821 154.489 178.916C148.979 170.077 150.683 160.977 151.435 157.017C153.276 147.196 160.55 130.807 172.305 130.546C180.868 130.346 188.188 138.787 191.15 145.815C198.746 163.892 184.812 190.042 171.292 190.625Z" fill="#1F1300"/>
</svg>
