<svg width="131" height="343" viewBox="0 0 131 343" fill="none" xmlns="http://www.w3.org/2000/svg">
<path d="M45.5953 25.8662C40.8073 16.9196 30.587 6.56109 6.58597 0.744995C5.55779 47.7342 4.52961 94.7233 3.50144 141.712C20.4587 149.846 26.4436 167.095 21.3334 177.116C16.6989 186.2 3.91578 187.443 2.50395 187.566C1.73666 222.754 0.954025 257.958 0.186729 293.146C3.34799 298.241 9.88534 307.187 21.3334 313.924C24.909 316.027 43.9839 327.275 50.3525 321.567C61.0332 311.991 22.7299 266.797 37.155 249.165C41.9583 243.287 52.4856 240.648 58.8848 244.285C76.2871 254.183 49.0788 302.568 71.7447 328.196C85.2644 343.48 112.887 346.534 120.115 337.864C123.859 333.368 121.511 326.447 117.568 312.405C105.322 268.777 110.785 274.056 103.311 253.339C84.9728 202.498 62.9515 200.718 65.6677 177.99C68.2151 156.567 88.3182 157.12 109.419 122.162C124.964 96.4267 138.622 56.5581 125.716 44.711C117.23 36.9153 96.4669 40.5523 85.4946 52.031C67.4785 70.8758 81.1824 105.189 66.3583 112.386C61.11 114.934 53.437 113.691 48.7105 109.594C32.275 95.3679 61.3248 55.269 45.5953 25.8662Z" fill="#1F1300"/>
</svg>
