<svg width="200" height="318" viewBox="0 0 200 318" fill="none" xmlns="http://www.w3.org/2000/svg">
<path d="M147.523 25.9752C148.904 13.7445 153.048 10.2456 150.071 5.56512C140.971 -8.76796 92.6003 9.01793 87.7663 10.7981C82.073 12.8851 77.7761 15.6167 77.0549 16.0771C73.9857 18.026 70.6403 20.6195 67.2949 24.0569C50.0614 41.8275 53.5296 61.3014 41.2989 88.2488C24.265 125.8 2.16685 121.104 0.923832 143.371C-0.687488 172.176 26.0911 180.815 38.5367 219.426C42.9563 233.114 40.3321 240.588 47.5754 269.591C50.2763 280.395 51.9183 284.907 54.8647 289.633C65.9138 307.404 85.8481 313.128 91.5261 314.754C116.985 322.059 152.879 317.379 168.915 294.59C174.194 287.086 175.79 278.108 178.982 260.138C182.527 240.204 181.284 230.858 182.711 206.765C183.417 194.903 184.845 180.37 187.868 162.047C194.957 119.171 204.978 89.1389 196.17 81.4506C190.599 76.586 183.77 87.4662 172.522 84.0748C156.178 79.1334 144.776 50.191 147.523 25.9752ZM101.977 166.544C99.7054 175.659 92.0325 206.32 74.354 209.129C52.8083 212.551 25.6307 173.158 32.9201 152.349C37.2783 139.903 51.0282 142.527 60.5427 123.959C67.1568 111.068 65.6375 99.8504 74.354 95.5689C80.7072 92.4537 87.7049 95.3694 88.1653 95.5689C104.923 102.843 108.806 139.197 101.977 166.544Z" fill="#1F1300"/>
</svg>
