<svg width="176" height="333" viewBox="0 0 176 333" fill="none" xmlns="http://www.w3.org/2000/svg">
<path d="M69.2911 17.4791C34.947 16.543 19.6164 1.44261 8.18371 11.3714C-4.47666 22.3591 -1.25401 54.34 13.0177 63.1792C26.5221 71.5274 44.3693 54.6622 54.4516 63.1792C61.4954 69.1334 58.7792 82.3002 54.4516 105.764C50.4003 127.724 47.0856 149.822 42.8961 171.751C35.2539 211.789 41.1007 200.878 31.9392 270.027C28.0567 299.307 25.6627 311.384 33.9802 320.944C43.1877 331.533 59.439 331.993 77.4244 332.484C87.5988 332.761 109.037 332.837 114.761 322.985C117.953 317.492 115.927 312.243 114.761 303.297C112.367 285.05 117.063 278.59 119.518 257.136C121.559 239.35 117.431 206.418 109.206 140.569C102.346 89.436 101.318 74.1208 109.206 69.5938C123.109 61.5986 150.271 98.4748 164.942 91.5844C181.869 83.6353 180.534 16.9266 152.098 2.56285C131.565 -7.84168 115.897 18.7528 69.2911 17.4791Z" fill="#1F1300"/>
</svg>
