<svg width="225" height="329" viewBox="0 0 225 329" fill="none" xmlns="http://www.w3.org/2000/svg">
<path d="M215.663 3.46496C202.788 -8.3207 183.452 13.8388 135.557 13.6546C111.004 13.5626 89.8877 7.62369 83.9642 17.7213C83.6727 18.2277 82.7519 24.0592 81.9232 35.8141C81.5549 41.1238 80.8183 48.1676 79.207 57.8509C78.9154 59.6463 78.762 60.5364 78.5625 61.5492C76.3066 73.8566 68.7258 107.863 50.6943 112.283C31.604 116.963 15.4754 86.517 4.8714 91.8727C-3.1852 95.9394 1.63344 116.319 6.91244 164.091C11.8078 208.394 14.2631 230.554 13.3577 247.864C11.332 286.935 1.97103 302.879 13.3577 315.754C21.2301 324.655 33.5376 325.898 54.0857 327.969C68.9099 329.473 86.0052 329.044 106.354 324.578C134.514 318.394 156.734 313.514 174.244 295.298C197.524 271.098 208.358 227.638 192.567 210.665C174.612 191.36 132.473 216.144 118.999 195.933C113.413 187.57 113.996 173.359 120.61 167.405C135.803 153.747 170.975 194.291 199.365 181.355C219.469 172.209 229.367 139.338 223.121 112.973C216.691 85.7804 192.276 61.9482 172.203 64.1273C156.136 65.8768 149.445 83.5706 140.299 80.1791C131.107 76.7723 125.444 54.3366 133.516 44.592C147.957 27.1437 196.68 62.1631 215.693 43.1955C225.438 33.4816 225.024 12.028 215.663 3.46496Z" fill="#1F1300"/>
</svg>
