<svg width="96" height="342" viewBox="0 0 96 342" fill="none" xmlns="http://www.w3.org/2000/svg">
<path d="M87.305 0.952759C84.0823 4.66647 78.8494 10.1143 71.4833 15.4546C59.1452 24.4013 48.3417 27.5779 45.472 28.7902C33.8092 33.747 24.4788 61.1548 35.6353 161.317C40.5 201.877 26.4584 240.441 3.73116 313.257C0.708019 322.925 -1.5018 330.383 2.38072 335.417C11.4962 347.248 50.3367 340.404 58.9764 321.329C62.7822 312.935 58.3012 307.763 54.6489 290.423C46.5923 252.181 54.9404 207.002 70.9462 202.506C72.4041 202.092 75.1203 201.324 77.146 202.782C87.5505 210.194 53.544 256.815 66.189 302.991C70.4398 318.506 76.394 322.143 78.9261 323.171C85.1412 325.672 91.7246 323.232 95.1621 321.621C92.5532 214.706 89.9291 107.837 87.305 0.952759Z" fill="#1F1300"/>
</svg>
