<svg width="133" height="301" viewBox="0 0 133 301" fill="none" xmlns="http://www.w3.org/2000/svg">
<path d="M107.595 43.2097C100.136 36.964 89.2716 32.9587 67.5418 24.9174C52.8251 19.4849 43.9705 17.4593 27.3202 10.1546C18.3428 6.21075 11.2223 2.54306 6.69529 0.118408C4.68497 89.0633 2.69 178.008 0.679684 266.938C21.857 278.815 40.1954 286.504 53.2701 291.384C81.6754 301.972 89.7626 300.99 95.3639 299.149C112.889 293.409 120.501 274.611 124.061 266.6C133.529 245.285 136.46 210.864 119.81 198.679C99.2925 183.655 68.2784 213.442 51.8122 198.74C34.5327 183.318 52.0424 136.022 62.9687 129.684C69.6595 125.801 73.2198 130.436 85.2817 129.684C97.7579 128.901 122.066 121.059 129.923 102.061C139.176 79.6716 121.022 54.4583 107.595 43.2097Z" fill="#1F1300"/>
</svg>
