<svg width="207" height="282" viewBox="0 0 207 282" fill="none" xmlns="http://www.w3.org/2000/svg">
<path d="M181.644 16.9854C170.165 5.78286 155.187 18.2437 123.943 13.5939C95.5838 9.37381 81.1433 -4.88256 72.3501 2.72901C66.5954 7.71643 67.8077 18.121 67.9612 19.3793C69.4804 31.2571 80.4681 35.8148 84.5654 54.6289C85.21 57.5906 88.4633 72.5069 81.0819 85.8885C70.0482 105.93 40.1084 112.774 29.3048 112.682C18.8389 112.59 15.0638 114.079 10.2145 118.192C-1.89339 128.504 -3.45867 155.528 7.63642 164.275C24.0872 177.258 63.5262 140.996 75.2965 157.14C79.2558 162.572 79.7008 171.503 80.5909 189.381C81.128 200.001 81.4349 212.155 78.5805 227.025C72.6263 258.054 58.416 267.062 63.4955 275.272C68.2221 282.899 81.8339 277.375 117.129 277.989C154.497 278.648 159.239 285.186 170.763 279.247C199.568 264.392 204.233 205.832 188.826 196.379C179.817 190.854 165.27 200.031 149.294 191.33C147.422 190.317 145.688 188.752 144.154 186.45C136.803 175.463 137.171 152.566 144.154 145.016C153.745 134.658 173.219 161.482 188.841 154.945C209.573 146.275 212.274 89.5715 194.457 79.5353C187.153 75.4226 172.329 76.8651 166.313 77.4329C156.215 78.415 150.998 80.6862 147.008 77.4022C142.972 74.0721 141.422 66.0309 144.292 60.4296C151.213 46.8945 179.127 56.808 187.061 43.4571C191.496 36.0296 188.411 23.5841 181.644 16.9854Z" fill="#1F1300"/>
</svg>
