<svg width="182" height="265" viewBox="0 0 182 265" fill="none" xmlns="http://www.w3.org/2000/svg">
<path d="M155.091 8.09547C145.53 -4.84113 114.762 20.3722 66.0076 14.065C34.4411 9.98304 13.9543 -4.91788 8.24561 2.70904C5.19177 6.79105 8.61391 19.5742 15.4582 45.1098C15.6577 45.8464 15.8112 46.3988 15.8112 46.3988C18.7883 57.2944 22.0262 61.4379 23.2386 76.7991C26.0315 112.171 10.9158 116.269 12.5425 153.682C13.8315 183.223 24.8959 184.451 20.5224 208.498C15.5963 235.629 -2.92621 244.223 1.50876 253.2C7.93869 266.229 45.5208 245.282 103.712 253.2C138.763 257.973 163.024 270.725 171.234 260.091C175.639 254.367 170.851 247.814 171.234 228.862C171.618 210.17 176.56 203.081 179.383 188.809C188.268 143.861 161.014 104.192 158.958 101.276C149.75 88.2778 140.312 74.8962 123.539 70.1697C106.505 65.3664 90.2542 71.8731 84.8371 63.0338C82.1055 58.5682 83.4866 52.3684 85.3434 48.7775C86.4637 46.5984 89.9319 40.9203 103.16 37.5749C125.903 31.8202 137.013 43.8054 147.464 37.1146C156.165 31.5747 160.584 15.5229 155.091 8.09547ZM76.4428 173.601C76.9799 172.373 88.7656 145.38 104.065 145.978C124.061 146.761 148.492 194.579 131.688 215.035C120.225 229 90.7299 229.307 76.4428 215.035C66.4833 205.075 71.9005 183.867 76.4428 173.601Z" fill="#1F1300"/>
</svg>
