<svg width="196" height="274" viewBox="0 0 196 274" fill="none" xmlns="http://www.w3.org/2000/svg">
<path d="M149.866 1.51171C145.124 -1.74162 140.152 2.46313 121.354 8.29457C92.7795 17.1799 66.1237 19.313 59.571 19.8347C34.3883 21.8604 21.6513 18.8679 17.4772 26.6176C14.2545 32.6025 19.4261 38.8483 14.761 52.7056C13.4719 56.5574 12.3056 59.5039 10.1265 63.2636C5.36924 71.443 0.872904 73.4379 0.504602 82.5841C-0.339422 103.915 22.0349 104.544 33.8666 137.968C42.6905 162.889 41.0025 192.891 40.849 195.331C40.7569 196.696 40.6648 197.817 40.6035 198.63C37.7338 232.974 24.2294 245.619 30.1222 256.484C30.7361 257.62 31.3959 258.218 32.5775 259.476C54.7217 283.017 114.525 270.403 126.771 267.625C159.764 260.152 176.277 256.407 185.837 242.795C204.728 215.925 194.462 167.708 171.581 157.933C166.225 155.646 161.437 155.984 155.728 156.444C122.228 159.191 105.501 190.604 97.6903 183.898C93.1325 179.985 93.0558 166.296 97.6903 158.378C106.023 144.137 126.034 158.715 138.296 145.625C150.434 132.658 151.171 96.5336 138.296 81.8322C121.354 62.5117 88.6055 88.2468 77.3876 69.0797C73.014 61.6063 72.8912 48.9612 77.3876 43.5595C87.3931 31.559 117.809 66.21 138.296 56.3119C156.419 47.6108 160.946 9.12328 149.866 1.51171Z" fill="#1F1300"/>
</svg>
