<svg width="109" height="480" viewBox="0 0 109 480" fill="none" xmlns="http://www.w3.org/2000/svg">
<path d="M69.555 70.8028C67.1918 69.7746 59.3807 66.7054 50.6949 68.7618C33.1545 72.9359 22.0748 95.7246 26.9395 110.18C27.3845 111.516 29.3488 117.362 33.2159 117.991C40.8122 119.204 44.6333 98.4101 58.1684 95.2488C66.2557 93.3613 75.3404 98.318 79.8981 104.073C91.2081 118.375 83.5352 149.205 62.7568 161.773C48.7153 170.275 29.0572 170.183 16.1666 160.761C-1.68069 147.717 -0.360905 122.058 1.14299 94.0519C2.32463 72.23 4.12008 39.0061 26.1108 24.3354C30.4843 21.4197 32.1264 21.5885 58.0149 13.4705C74.8954 8.17615 88.5533 3.60306 97.4232 0.564575C101.244 153.64 105.081 306.731 108.902 459.806C108.426 460.957 101.26 477.531 85.8524 479.48C78.6244 480.385 71.504 477.838 66.8388 474.047C53.5953 463.305 57.6159 440.593 60.0559 410.914C64.4448 357.434 56.6184 367.332 61.4064 313.836C63.9231 285.676 67.6215 266.555 74.9875 228.298C81.8778 192.527 99.7251 105.761 83.8114 83.0182C77.7958 74.4244 69.555 70.8028 69.555 70.8028Z" fill="#1F1300"/>
</svg>
