<svg width="151" height="338" viewBox="0 0 151 338" fill="none" xmlns="http://www.w3.org/2000/svg">
<path d="M109.08 41.0427C105.98 39.6769 105.735 40.2294 81.9181 32.4644C51.6713 22.6123 43.2771 18.8372 37.7833 16.167C31.3687 13.0365 22.0384 8.04904 11.3116 0.529541C8.8102 111.434 2.50407 199.644 0.00268555 310.534C24.1111 326.493 39.4099 319.15 44.7196 315.697C70.3473 299.031 13.5521 222.339 44.7196 200.18C52.4386 194.701 65.3138 194.456 72.3423 200.18C97.0031 220.268 37.4721 291.457 67.6728 324.665C77.218 335.177 94.9621 338.109 109.08 336.896C109.08 336.896 120.164 336.037 134.528 324.665C158.36 305.821 150.576 275.666 141.414 187.949C132.774 105.25 136.795 53.3347 109.08 41.0427Z" fill="#1F1300"/>
</svg>
