<svg width="146" height="320" viewBox="0 0 146 320" fill="none" xmlns="http://www.w3.org/2000/svg">
<path d="M132.711 128.493C125.943 107.623 125.084 100.211 119.068 67.4931C113.743 38.4893 114.188 31.9212 107.636 22.9746C92.7502 2.64126 64.8974 1.75116 49.4287 1.26009C28.6811 0.600213 14.5014 0.139877 5.64685 10.2221C-9.06987 26.9952 9.48333 51.7942 13.0282 116.753C15.545 162.899 10.0358 179.564 21.2843 193.652C32.6249 207.862 55.1527 206.726 67.8591 192.654C78.0028 181.421 80.3047 163.865 87.3178 164.372C91.4151 164.663 96.0035 171.6 97.0471 178.521C100.331 200.297 67.2913 210.916 36.5228 256.877C28.7424 268.494 12.1995 293.738 20.9007 307.119C24.3535 312.429 31.0904 314.808 32.4408 315.268C45.5922 319.672 58.4828 311.263 59.603 310.511C86.3663 292.495 62.6416 234.763 87.3178 220.937C93.671 217.377 103.354 216.579 106.776 220.937C118.056 235.285 62.2732 297.82 74.9183 314.47C77.9414 318.445 84.0951 318.782 94.7298 319.396C107.528 320.117 118.102 316.68 121.723 314.946C151.786 300.551 151.955 187.805 132.711 128.493ZM58.1452 124.672C51.9915 122.355 49.0604 113.654 48.4159 111.72C44.3185 99.52 46.4823 80.6445 58.1452 72.8795C70.4833 64.6694 84.5248 74.8591 87.3484 85.8315C91.7067 102.804 71.2352 129.583 58.1452 124.672Z" fill="#1F1300"/>
</svg>
