<svg width="144" height="324" viewBox="0 0 144 324" fill="none" xmlns="http://www.w3.org/2000/svg">
<path d="M9.65735 10.7028C-11.2438 31.6499 7.04853 85.7749 20.8445 86.9105C30.3743 87.7085 35.8989 63.1704 50.2166 63.8303C56.1861 64.1065 62.6621 68.787 63.4601 74.02C65.0714 84.6394 42.1907 89.013 28.3333 105.587C8.85936 128.882 25.5557 153.865 24.6043 219.131C23.7142 279.809 8.23018 304.147 23.929 317.114C37.0191 327.918 64.2888 324.619 76.1051 310.485C80.3713 305.39 85.3434 295.646 67.0357 212.517C59.7003 179.216 53.4238 155.737 62.4472 129.02C65.7006 119.398 70.1509 111.51 72.6369 107.121C82.3355 89.9797 92.4638 72.0403 109.805 66.8995C124.537 62.5259 132.148 71.9022 138.824 65.8866C147.51 58.0448 142 36.1003 133.729 22.6112C131.918 19.6495 127.729 13.2656 119.979 7.84846C110.833 1.44922 98.9705 -1.95766 55.8178 1.90951C28.4714 4.33416 14.6908 5.65397 9.65735 10.7028Z" fill="#1F1300"/>
</svg>
