<svg width="218" height="326" viewBox="0 0 218 326" fill="none" xmlns="http://www.w3.org/2000/svg">
<path d="M80.1286 30.259C83.52 38.469 87.1263 48.3978 85.4997 59.7384C85.3309 60.874 83.4279 72.9973 74.3432 78.5525C65.4425 83.9849 57.6775 78.2303 47.8715 79.0589C24.7912 80.9925 5.86973 118.068 1.02043 147.287C-1.52699 162.71 1.63428 178.7 7.51176 210.604C13.1437 241.096 15.998 239.746 18.8677 261.798C23.5636 297.876 17.0262 310.076 27.1545 319.1C38.5105 329.213 59.5344 325.253 71.9646 319.1C74.9877 317.611 91.3618 309.493 96.7482 293.426C109.854 254.34 46.6898 201.258 58.5676 184.976C67.0078 173.39 74.2204 174.71 74.2204 174.71C74.2204 174.71 74.3739 174.741 74.5427 174.771C79.2999 175.861 95.6433 187.094 103.378 202.287C121.21 237.291 98.0833 302.419 120.181 319.1C133.624 329.259 163.488 321.202 178.573 303.646C203.295 274.888 171.805 239.869 174.199 170.06C177.268 80.9465 232.667 17.5679 213.193 2.51355C209.172 -0.601672 199.428 -0.0185351 179.923 1.1631C158.209 2.4675 147.344 3.112 140.545 7.27074C105.265 28.8317 146.914 146.888 121.256 157.645C118.371 158.858 112.171 158.06 99.756 156.494C85.4996 154.699 77.5505 153.594 74.067 147.594C70.8136 142.008 73.1923 135.148 73.6066 134.013C77.8421 122.365 91.4692 120.616 100.692 114.8C126.826 98.318 132.888 39.3284 110.007 18.8109C97.5615 7.65442 75.7396 7.13269 72.6705 12.7033C71.0745 15.5576 75.2793 18.5347 80.1286 30.259Z" fill="#1F1300"/>
</svg>
