<svg width="165" height="323" viewBox="0 0 165 323" fill="none" xmlns="http://www.w3.org/2000/svg">
<path d="M115.066 205.386C108.191 200.889 99.1676 189.718 102.421 106.696C104.815 45.5889 111.107 15.296 94.1802 4.13954C85.5098 -1.56914 75.0285 0.563961 72.4504 1.08572C41.1908 7.45427 27.6097 57.4512 15.1641 103.289C10.9133 118.958 6.72391 134.334 3.977 153.041C3.977 153.041 2.27359 164.965 1.47561 176.72C0.739003 187.661 -7.02605 302.372 36.2187 319.759C45.9941 323.687 58.7312 322.782 67.5704 317.012C72.5885 313.728 80.0159 306.469 83.0851 287.179C92.0471 230.906 46.3624 183.825 59.4678 170.581C63.8567 166.162 73.9543 166.561 80.6298 170.412C114.161 189.81 76.0414 291.538 107.378 307.267C118.826 313.007 136.903 305.825 139.543 304.781C153.277 299.333 161.104 289.635 164.296 285.138C163.759 256.165 163.221 227.192 162.684 198.219C134.371 212.875 121.404 209.529 115.066 205.386ZM80.3382 136.406C77.3764 138.125 68.4758 142.422 59.1915 137.895C57.7644 137.204 50.8434 133.981 48.5262 126.631C44.4135 113.556 55.9382 96.0001 69.4273 92.4552C71.6831 91.8567 75.6884 90.6751 80.0006 92.3785C90.0368 96.3224 95.6995 113.08 90.8348 124.973C87.9652 132.017 82.2718 135.301 80.3382 136.406Z" fill="#1F1300"/>
</svg>
