<svg width="140" height="306" viewBox="0 0 140 306" fill="none" xmlns="http://www.w3.org/2000/svg">
<path d="M82.6998 119.735C102.189 101.32 91.9534 46.4889 64.8832 25.8793C53.3124 17.0708 30.8153 8.52312 28.2218 7.55633C19.3979 4.24161 11.8017 2.10853 6.41531 0.773438C4.51242 90.992 2.60952 181.211 0.706629 271.429C5.06487 275.772 11.4795 281.465 20.0732 286.821C43.4143 301.384 84.1116 314.321 103.57 297.947C114.282 288.939 107.821 280.1 117.827 244.988C129.121 205.334 144.805 190.449 137.684 181.349C132.666 174.934 122.599 179.384 94.9151 180.842C67.8296 182.269 25.4749 184.495 15.9911 166.202C11.326 157.21 15.2852 144.181 21.8686 135.94C36.9537 117.08 66.3871 135.158 82.6998 119.735Z" fill="#1F1300"/>
</svg>
