<svg width="105" height="304" viewBox="0 0 105 304" fill="none" xmlns="http://www.w3.org/2000/svg">
<path d="M81.1508 140.89C64.8995 130.301 39.6862 142.163 25.215 126.28C23.619 124.531 19.1841 119.651 20.1202 114.065C21.087 108.372 27.3481 103.768 33.1795 103.2C42.295 102.31 45.0112 111.763 53.5129 113.282C69.135 116.075 86.9209 88.9285 94.9468 71.8485C95.0696 71.5723 95.2691 71.1733 95.4993 70.6515C100.732 59.2802 108.819 34.1129 100.717 22.9564C91.5247 10.3114 68.4137 25.1663 32.5043 13.0737C21.2097 9.2679 12.5546 4.11166 6.83062 0.183105C4.63615 97.8905 2.42634 195.598 0.231873 293.305C6.29351 298.063 15.1788 303.249 25.9056 303.295C56.1063 303.464 75.611 262.905 81.1508 251.38C99.2283 213.767 105.044 156.45 81.1508 140.89ZM44.7197 241.544C36.5403 245.227 24.5091 242.679 19.6138 235.743C12.524 225.691 22.2379 209.041 27.7624 199.588C28.8673 197.685 44.0291 171.704 52.7149 174.635C64.0095 178.456 66.0812 231.906 44.7197 241.544Z" fill="#1F1300"/>
</svg>
