<svg width="186" height="304" viewBox="0 0 186 304" fill="none" xmlns="http://www.w3.org/2000/svg">
<path d="M1.54924 3.30925C-2.39465 9.35554 8.80787 17.1359 14.0101 38.8043C23.5246 78.4582 -2.10306 104.469 12.4755 124.726C12.9359 125.355 22.0667 137.724 32.548 136.404C45.6687 134.747 49.8582 113.017 63.7462 112.265C69.3935 111.958 74.1968 115.304 76.2224 117.176C97.8908 137.218 20.6549 240.772 48.5998 283.648C60.232 301.511 88.9288 309.614 103.845 298.779C142.532 270.696 81.6242 124.388 117.656 102.045C134.138 91.8244 156.052 121.012 172.902 108.551C191.209 95.0164 189.644 43.1626 168.973 27.2949C162.067 22.0006 156.896 23.6733 127.554 22.0926C127.554 22.0926 101.942 20.6962 78.6778 17.627C29.8931 11.1817 7.21188 -5.36119 1.54924 3.30925Z" fill="#1F1300"/>
</svg>
