<svg width="222" height="292" viewBox="0 0 222 292" fill="none" xmlns="http://www.w3.org/2000/svg">
<path d="M216.637 109.217C215.763 68.7804 215.364 7.90319 196.335 2.27124C195.659 2.07175 191.132 2.13313 182.078 2.27124C165.29 2.51678 159.059 2.94646 149.499 3.00785C141.918 3.06923 135.626 2.793 123.027 2.27124C83.7724 0.598539 81.6086 -1.15089 77.542 1.53464C64.099 10.4199 86.6114 45.6541 73.8129 81.0111C71.2655 88.0702 69.5468 92.8121 64.6515 96.2342C47.4794 108.25 21.7136 82.5303 7.11965 91.1394C2.83814 93.6715 -5.89369 102.357 6.10681 169.035C18.2454 236.496 24.307 270.241 50.4104 283.761C66.7231 292.217 94.4839 296.13 109.477 282.411C140.982 253.545 91.338 169.48 120.004 149.853C127.677 144.605 140 144.605 147.627 149.853C176.554 169.741 127.247 257.596 157.003 281.72C169.372 291.756 192.897 288.764 207.246 278.329C230.525 261.372 219.307 232.122 216.637 109.217ZM119.958 89.1751C115.6 82.868 117.211 74.9034 119.958 58.913C122.014 46.9739 124.393 33.1012 133.769 28.6509C138.91 26.1955 143.974 27.638 147.581 28.6509C157.463 31.4438 173.73 41.0043 175.203 58.913C176.661 76.5301 162.666 88.1469 161.392 89.1751C148.394 99.6103 127.57 100.178 119.958 89.1751Z" fill="#1F1300"/>
</svg>
