<svg width="173" height="312" viewBox="0 0 173 312" fill="none" xmlns="http://www.w3.org/2000/svg">
<path d="M66.3462 11.5657C62.4483 9.2945 59.6093 14.0057 41.9001 18.2565C22.1653 22.983 16.2571 19.4075 9.99599 22.7222C-4.72073 30.5179 1.52503 108.629 3.21308 128.962C12.528 241.294 -9.44728 293.347 18.1447 307.91C29.3472 313.819 48.2226 313.312 55.4812 304.519C61.4661 297.276 58.443 285.766 56.8317 279.398C47.5934 242.69 31.4189 178.452 48.8825 163.444C55.4812 157.781 68.7708 157.505 76.5051 163.444C101.565 182.688 49.4503 256.41 76.5051 288.145C93.3242 307.88 138.272 308.463 159.373 288.145C162.642 284.999 164.928 281.669 166.432 278.109C182.837 239.268 163.025 192.018 159.373 135.729C154.723 63.8645 182.852 8.41978 167.491 0.393877C166.463 -0.14323 166.217 0.0409214 138.978 3.37098C123.51 5.25853 121.315 5.47337 116.573 6.34809C99.969 9.38658 91.6669 10.9058 88.7358 13.7909C72.5305 29.7506 108.685 78.8421 90.3164 108.015C83.3494 119.079 69.2312 126.184 62.6938 121.872C45.4757 110.516 82.5975 21.0341 66.3462 11.5657Z" fill="#1F1300"/>
</svg>
