<svg width="88" height="308" viewBox="0 0 88 308" fill="none" xmlns="http://www.w3.org/2000/svg">
<path d="M83.9755 117.213C82.7785 119.07 69.5964 139.388 60.6651 136.196C55.34 134.293 53.3144 124.672 52.5164 111.167C49.0022 52.1315 74.3996 15.1785 63.3813 3.96067C55.5702 -3.98851 31.5539 3.16269 18.5712 17.7413C4.00796 34.1154 3.07188 64.4082 1.18433 125.009C1.12295 126.789 1.0769 128.554 1.0769 128.554C0.969479 132.636 0.846706 138.913 0.83136 146.555C0.83136 153.215 0.908091 160.796 1.16897 169.282C2.64218 216.931 7.56821 221.535 7.01576 255.91C6.55538 285.052 2.70356 294.321 5.43513 300.996C6.11035 302.623 6.6935 303.467 7.69098 304.541C8.64243 305.554 24.771 311.753 49.4472 300.551C58.3325 296.515 73.2948 287.967 87.4437 269.568C86.3081 218.788 85.1418 168.008 83.9755 117.213ZM49.4625 243.971C27.9629 237.449 29.0985 175.866 39.2729 172.136C44.3217 170.28 49.5086 183.462 66.7727 188.464C74.3383 190.659 81.0752 190.367 85.6329 189.769C85.8631 199.682 86.0932 209.596 86.308 219.509C74.9674 235.745 60.3735 247.27 49.4625 243.971Z" fill="#1F1300"/>
</svg>
