<svg width="125" height="330" viewBox="0 0 125 330" fill="none" xmlns="http://www.w3.org/2000/svg">
<path d="M100.166 179.131C94.1196 176.66 82.7943 176.107 72.5432 179.131C56.3226 183.918 50.2917 195.52 44.9206 192.942C39.5035 190.348 37.9382 174.849 44.9206 165.319C54.6806 151.984 72.7581 161.483 86.3545 151.508C112.565 132.279 104.524 53.4169 69.8423 34.0196C61.1259 29.155 50.8595 28.0961 30.4647 16.3719C20.0909 10.4023 12.1878 4.60154 7.23105 0.734375C5.144 93.3009 3.05696 185.883 0.969913 278.449C1.55306 284.449 3.57871 295.836 12.1264 305.581C14.9654 308.834 21.4414 315.203 41.3143 321.203C61.6169 327.326 79.4642 332.697 92.9072 327.311C134.357 310.691 132.346 192.328 100.166 179.131ZM58.7319 82.4513C68.4612 88.0065 76.1035 100.452 72.5432 110.074C69.1364 119.281 57.1052 121.568 44.9206 123.885C36.5878 125.466 32.7973 124.453 31.1093 123.885C25.109 121.875 19.3083 116.811 17.298 110.074C13.9679 98.9482 22.2393 87.5155 31.1093 82.4513C39.5342 77.6481 50.2456 77.6174 58.7319 82.4513ZM44.9206 289.621C42.8029 288.562 35.4829 284.618 31.1093 275.81C30.787 275.165 24.2343 261.385 31.1093 248.187C38.9817 233.087 60.0363 227.179 72.5432 234.376C90.0682 244.473 89.1015 279.339 72.5432 289.621C64.7168 294.47 53.4222 293.857 44.9206 289.621Z" fill="#1F1300"/>
</svg>
