<svg width="190" height="309" viewBox="0 0 190 309" fill="none" xmlns="http://www.w3.org/2000/svg">
<path d="M158.902 144.131C147.669 137.793 126.66 134.908 117.468 144.131C109.396 152.218 113.37 166.705 103.656 171.754C99.6512 173.841 93.743 174.071 89.8451 171.754C76.8165 164.004 93.2673 131.962 89.8451 88.8859C89.1699 80.3076 84.6429 23.5431 48.4112 6.01803C37.1933 0.600927 17.7501 -3.32762 6.97725 6.01803C-5.26878 16.6374 1.36064 37.7687 11.7191 92.5383C30.8862 193.821 32.4054 204.517 31.0703 216.779C29.6431 229.915 27.6789 240.519 25.6839 249.205C17.2744 285.636 16.062 288.567 18.5174 292.327C22.2464 298.005 29.3055 298.204 44.9891 299.8C102.275 305.585 111.084 313.166 135.96 305.908C144.645 303.376 151.582 301.35 158.902 296.071C201.671 265.21 197.773 166.045 158.902 144.131ZM117.468 240.81C108.935 221.628 135.116 196.369 145.09 199.376C156.508 202.814 159.93 247.317 145.09 254.622C136.758 258.719 122.164 251.353 117.468 240.81Z" fill="#1F1300"/>
</svg>
