<svg width="302" height="306" viewBox="0 0 302 306" fill="none" xmlns="http://www.w3.org/2000/svg">
<path d="M53.7006 5.74995C8.01586 5.32026 3.82644 9.00327 2.10769 11.8576C-6.30186 25.807 28.0883 46.3092 49.2964 96.8739C67.5426 140.38 67.7882 184.054 67.8035 205.83C67.8035 259.249 54.7288 282.82 70.0133 297.66C81.2465 308.571 98.5414 305.747 130.43 301.051C266.211 281.102 284.825 283.649 290.657 267.781C301.43 238.44 254.364 183.855 265.781 156.723C268.543 150.17 273.884 137.402 284.258 114.721C287.357 107.938 290.488 99.4367 293.404 87.6664C299.066 64.7703 310.1 20.1597 289.982 5.71925C277.459 -3.27345 253.949 0.24076 245.171 12.5021C234.353 27.6179 256.067 41.7361 251.97 73.8397C247.903 105.59 226.756 119.125 223.211 154.759C222.736 159.501 223.027 164.641 224.347 170.519C229.319 192.678 243.852 202.807 238.158 211.953C232.035 221.805 207.068 223.079 196.724 211.953C187.072 201.579 193.962 184.499 210.536 129.085C220.465 95.8918 242.885 15.2337 224.347 4.78315C218.761 1.63724 215.094 8.08252 191.538 12.5021C164.529 17.5663 155.475 11.6888 148.093 18.6098C138.763 27.3416 147.74 41.7361 150.134 73.5942C153.817 122.824 134.88 126.154 141.479 170.519C144.042 187.691 149.674 206.26 141.479 211.953C137.274 214.869 130.798 213.487 127.668 211.953C95.5182 196.147 162.871 40.5238 118.23 9.78593C113.089 6.31776 93.2931 6.1336 53.7006 5.74995Z" fill="#1F1300"/>
</svg>
