<svg width="126" height="306" viewBox="0 0 126 306" fill="none" xmlns="http://www.w3.org/2000/svg">
<path d="M118.935 0.681641C108.653 12.3599 98.7091 18.0379 91.6653 21.061C85.3581 23.7772 54.9118 35.701 51.2749 39.7216C48.5279 42.7601 46.2414 46.1362 46.2414 46.1362C40.901 55.2977 41.4535 66.5463 36.6809 91.1458C22.3171 165.343 -4.78372 177.466 1.55413 224.041C3.21149 236.241 8.30633 248.119 18.3886 271.905C26.8442 291.855 31.9237 299.328 40.456 303.149C47.5919 306.341 54.7124 305.881 60.4517 305.528C65.1322 305.237 74.171 304.116 88.9644 296.704C98.0492 292.146 111.538 284.121 125.549 270.232C125.15 254.165 124.766 238.114 124.367 222.046C106.029 223.673 91.1435 217.596 87.0922 207.253C86.8467 206.639 83.9923 199.074 87.5986 195.038C92.3712 189.713 106.551 192.659 123.892 203.033C123.109 171.129 122.326 139.24 121.544 107.336C111.906 112.154 103.758 112.384 101.241 108.901C99.062 105.893 101.487 100.676 102.361 98.8033C106.919 88.982 117.861 85.698 120.991 84.8846C120.316 56.8016 119.626 28.734 118.935 0.681641Z" fill="#1F1300"/>
</svg>
