<svg width="90" height="314" viewBox="0 0 90 314" fill="none" xmlns="http://www.w3.org/2000/svg">
<path d="M4.04897 0.836914C2.75991 58.3227 1.45551 115.808 0.166458 173.294C1.54759 175.888 3.95689 179.617 7.99287 182.793C18.5202 191.049 28.6331 186.461 33.7893 191.617C41.493 199.306 27.3287 217.905 25.6407 237.102C22.2185 275.928 69.5913 319.264 84.707 312.466C98.3496 306.328 75.699 263.881 76.543 177.806C77.3871 92.5441 100.559 37.4983 79.3513 25.8814C71.6784 21.6767 59.5398 23.9172 53.4781 30.0555C37.1654 46.5831 68.6706 87.5873 48.7209 118.31C47.5546 120.105 41.9687 128.438 38.0095 127.318C27.4208 124.325 50.1174 60.3637 19.533 17.1496C13.6402 8.81679 7.3023 3.39968 4.04897 0.836914Z" fill="#1F1300"/>
</svg>
