<svg width="156" height="298" viewBox="0 0 156 298" fill="none" xmlns="http://www.w3.org/2000/svg">
<path d="M155.351 186.729C151.99 147.014 130.874 140.415 133.345 103.862C134.941 80.1214 147.049 73.5227 144.348 48.6163C143.765 43.1992 140.864 16.4359 123.339 7.50459C115.958 3.74484 113.687 7.0749 92.7858 5.46358C68.2017 3.57603 62.4316 -1.68763 54.6052 2.59388C45.2288 7.73476 43.418 20.8555 41.6993 35.1579C36.5584 77.9883 33.3511 99.4112 34.2872 117.657C38.0162 190.873 38.8756 193.988 35.5916 204.193C22.4095 245.044 -1.77569 252.548 0.280666 267.464C2.9662 286.953 48.9425 294.626 53.4082 295.332C63.8741 296.99 85.0208 300.335 105.676 290.575C142.015 273.464 158.543 224.465 155.351 186.729ZM100.321 224.833C90.8522 233.243 74.9845 234.332 67.2962 224.833C58.3342 213.754 68.6313 198.346 67.2962 155.777C66.2988 124.011 59.8074 108.496 67.2962 100.531C73.097 94.3471 83.3174 96.9559 89.3023 100.531C109.467 112.547 110.771 152.769 111.308 169.588C112.06 192.024 112.766 213.8 100.321 224.833Z" fill="#1F1300"/>
</svg>
