<svg width="157" height="302" viewBox="0 0 157 302" fill="none" xmlns="http://www.w3.org/2000/svg">
<path d="M42.2206 2.67486C33.7497 5.7287 28.5167 10.9463 25.9233 13.5397C1.6307 37.7709 -0.625142 92.6786 0.802027 152.037C3.50291 264.415 18.4959 284.057 32.031 289.904C36.8649 291.991 48.6352 295.321 60.8659 297.316C72.6209 299.234 77.1019 298.636 97.5273 299.357C133.437 300.6 139.621 303.102 144.378 298.007C150.67 291.255 145.545 280.773 142.537 262.297C134.557 213.436 154.123 187.823 142.537 179.429C127.344 168.426 90.8825 210.351 73.9099 198.719C63.7356 191.736 62.9836 167.137 73.9099 157.285C90.5909 142.246 122.971 171.372 142.92 156.963C161.642 143.443 160.353 98.157 142.92 87.906C122.925 76.151 87.4757 113.948 73.9099 102.04C67.5414 96.4537 67.4033 81.9978 73.9099 74.417C88.3504 57.5979 128.28 84.622 142.537 68.9385C151.867 58.6721 146.603 34.1186 133.529 22.379C126.915 16.4401 123.477 18.4197 97.8956 12.1893C65.485 4.3015 56.5384 -2.48136 42.2206 2.67486Z" fill="#1F1300"/>
</svg>
