<svg width="196" height="299" viewBox="0 0 196 299" fill="none" xmlns="http://www.w3.org/2000/svg">
<path d="M85.1466 141.791C112.953 127.028 70.921 18.916 98.9579 3.67754C106.861 -0.619314 111.342 7.39128 142.065 10.3223C174.521 13.4222 182.317 5.68789 190.266 11.6728C208.543 25.4381 173.508 71.8748 170.623 142.098C167.569 216.326 203.049 252.051 178.726 280.518C166.05 295.357 141.911 302.631 127.685 294.651C106.846 282.973 112.355 241.37 112.769 238.455C118.371 199.384 147.65 180.217 140.392 169.398C136.202 163.152 121.655 163.597 112.769 169.398C105.741 173.986 100.692 182.918 98.9579 210.832C95.8427 261.197 109.025 285.367 97.2699 294.651C90.5177 299.976 77.2895 299.025 69.4171 292.733C45.769 273.827 80.2666 214.315 57.524 197.021C49.5902 191.005 35.8709 190.974 29.9014 197.021C13.205 213.947 62.4807 273.274 45.6616 290.692C38.9861 297.613 23.8858 295.848 15.1079 290.017C-2.32504 278.415 -0.191963 247.14 2.27873 210.832C3.21483 197.159 4.13559 186.616 7.12804 172.283C11.7318 150.277 17.5479 140.532 18.6988 114.475C21.4151 52.8919 -7.54265 19.9289 8.87747 5.61114C19.1746 -3.36622 42.5004 -0.803461 55.6211 11.2584C89.5049 42.426 46.1834 128.808 71.3353 141.775C75.3559 143.862 80.9879 144.001 85.1466 141.791Z" fill="#1F1300"/>
</svg>
