<svg width="179" height="302" viewBox="0 0 179 302" fill="none" xmlns="http://www.w3.org/2000/svg">
<path d="M142.681 6.71577C119.524 -5.08523 86.9447 3.84609 74.1155 7.39099C62.0536 10.7364 52.9842 13.2378 43.5618 20.2969C32.9271 28.2461 20.8192 42.7326 8.94147 109.226C2.69568 144.215 -0.32746 161.725 0.117571 177.117C0.363105 185.465 4.39905 277.847 55.1019 297.275C74.6833 304.779 100.618 301.173 106.02 289.802C110.148 281.131 100.035 272.814 91.7633 253.14C81.635 229.063 75.1591 189.869 90.6277 168.37C107.57 144.783 137.54 162.722 159.684 140.747C191.604 109.073 181.337 26.4199 142.681 6.71577ZM90.6277 113.14C87.1289 108.705 91.1188 104.791 90.6277 85.517C90.1827 67.8539 86.6225 62.4061 90.6277 57.8944C96.3057 51.5105 110.424 54.595 118.25 57.8944C134.011 64.5391 150.968 83.3686 145.873 99.3283C139.274 120.03 99.2828 124.112 90.6277 113.14Z" fill="#1F1300"/>
</svg>
