<svg width="203" height="333" viewBox="0 0 203 333" fill="none" xmlns="http://www.w3.org/2000/svg">
<path d="M199.828 194.088C193.26 197.617 180.492 203.403 172.88 198.185C170.456 196.528 162.66 190.037 171.53 150.659C175.674 132.229 183.039 106.493 196.958 76.615C196.344 51.2789 195.715 25.9428 195.101 0.606689C182.364 9.95235 163.09 22.1524 137.6 31.1758C103.624 43.1916 88.1405 39.0789 80.8205 51.6165C70.1244 69.9088 98.8826 88.2318 94.6318 134.484C92.3145 159.805 83.2605 172.849 80.8205 175.918C71.1219 188.103 58.707 193.566 54.2567 195.469C32.0512 204.968 22.5981 195.162 11.7639 203.541C-7.3571 218.319 3.33896 262.699 4.53594 267.441C6.85317 276.664 10.8278 286.255 18.7923 305.453C24.2708 318.651 25.4371 320.139 26.2657 321.075C42.1334 339.015 90.7339 334.503 99.5885 314.968C108.274 295.801 72.7638 275.391 80.8358 244.975C85.2094 228.509 100.739 214.667 108.458 217.352C124.357 222.877 98.499 295.371 123.359 312.251C134.117 319.556 155.862 317.438 202.068 284.383C201.301 254.275 200.565 224.181 199.828 194.088ZM136.05 203.541C130.065 202.559 111.666 199.536 108.428 189.73C105.972 182.302 114.842 178.865 122.239 162.107C131.032 142.203 125.922 134.776 136.05 120.673C142.987 111.021 154.112 102.734 157.949 105.174C162.476 108.059 151.964 122.729 149.862 148.296C147.391 178.404 158.686 197.51 149.862 203.541C147.191 205.367 143.478 204.753 136.05 203.541Z" fill="#1F1300"/>
</svg>
