<svg width="206" height="299" viewBox="0 0 206 299" fill="none" xmlns="http://www.w3.org/2000/svg">
<path d="M75.4278 5.6668C60.5423 -5.27483 38.8892 3.51837 33.9938 5.6668C9.27159 16.5164 -0.810677 45.9805 0.5858 67.7256C0.739259 70.227 3.24064 102.239 25.0318 117.968C32.0909 123.063 44.782 129.048 50.2144 143.35C50.4907 144.087 51.4882 146.788 52.1327 150.563C55.6316 171.096 42.1579 196.309 32.5053 213.696C11.9878 250.68 4.36089 259.979 8.74982 270.568C12.0185 278.486 20.0444 282.384 25.0472 284.824C38.1372 291.193 55.6469 291.607 67.141 285.499C104.155 265.841 83.4383 176.129 110.693 168.425C112.503 167.919 115.235 167.136 117.322 168.548C130.55 177.464 80.4919 248.24 103.802 279.392C109.711 287.279 118.857 290.671 126.883 293.648C143.993 299.986 164.081 299.664 175.759 293.648C195.74 283.382 195.556 254.27 199.469 186.534C205.223 86.7852 212.605 27.3659 190 17.4985C184.307 15.0125 170.68 13.2323 162.853 12.5725C147.446 11.2834 139.742 10.6389 135.691 13.2477C115.158 26.4912 153.232 98.7704 130.673 116.157C123.537 121.651 111.214 120.945 103.05 116.157C74.2308 99.2308 106.58 28.5782 75.4278 5.6668Z" fill="#1F1300"/>
</svg>
