<svg width="203" height="286" viewBox="0 0 203 286" fill="none" xmlns="http://www.w3.org/2000/svg">
<path d="M169.742 135.592C153.092 128.348 142.181 143.495 128.308 135.592C95.6368 116.992 129.352 20.9578 97.4169 4.82925C94.7774 3.49415 96.1279 4.95199 61.4308 2.11299C38.6421 0.256138 27.1634 0.118018 25.4446 0.762546C1.65847 9.5404 10.912 65.998 5.0806 166.575C1.27482 232.363 -5.29324 253.157 11.1883 269.607C24.9535 283.357 47.8189 283.818 93.5651 284.769C141.122 285.751 164.908 286.242 179.564 273.674C217.667 241.003 204.148 150.569 169.742 135.592ZM114.497 218.46C116.262 204.648 128.891 190.607 142.12 190.837C158.893 191.128 170.417 214.255 169.742 232.271C169.42 240.865 166.013 256.41 155.931 259.894C140.646 265.188 111.458 242.261 114.497 218.46Z" fill="#1F1300"/>
</svg>
