<svg width="255" height="308" viewBox="0 0 255 308" fill="none" xmlns="http://www.w3.org/2000/svg">
<path d="M44.6373 12.7152C-4.22408 33.1252 -10.5466 146.317 14.145 157.872C23.0763 162.046 32.5754 151.258 48.9341 157.028C52.6171 158.317 61.6252 162.215 72.2599 178.466C75.4672 183.362 89.5701 205.091 92.2249 249.963C94.0511 281.054 88.2196 286.01 94.7417 294.972C107.509 312.513 140.718 308.308 171.655 304.379C206.322 299.975 226.855 297.366 238.87 281.299C248.953 267.795 245.224 254.536 241.587 205.936C237.32 149.11 235.203 120.704 236.154 106.816C240.374 45.7396 263.439 15.5695 249.735 4.30563C239.745 -3.90443 218.031 4.35169 205.601 14.4953C182.091 33.6931 182.551 67.2699 182.75 81.8025C183.579 141.391 221.975 182.487 210.373 192.293C206.813 195.301 200.091 193.904 196.562 192.293C186.188 187.566 183.993 172.174 182.75 164.67C173.865 110.975 155.972 111.098 155.128 67.9911C154.529 37.4681 164.274 18.4239 155.128 12.7459C149.818 9.44651 144.923 14.8022 123.454 17.8867C102.046 20.9559 98.2559 16.8739 93.4066 21.6311C79.9789 34.7826 97.8109 76.8918 99.3147 80.4674C99.6063 81.1426 99.8825 81.7871 99.8825 81.7871C111.254 107.722 124.068 106.74 141.316 137.032C152.12 156.015 168.172 193.459 155.128 206.089C148.529 212.473 134.534 212.473 127.505 206.089C116.303 195.899 131.695 177.515 127.505 150.844C121.137 110.346 78.6438 108.52 72.2599 67.9758C68.0705 41.3506 83.2936 22.2143 72.2599 12.7305C63.39 5.08826 46.2793 12.0246 44.6373 12.7152Z" fill="#1F1300"/>
</svg>
