<svg width="86" height="317" viewBox="0 0 86 317" fill="none" xmlns="http://www.w3.org/2000/svg">
<path d="M29.207 30.2089C0.586915 47.1815 0.586935 135.466 0.694357 154.449C1.59976 305.33 16.6695 314.461 23.0994 316.026C29.8516 317.668 39.1512 313.51 57.7197 305.161C69.536 299.852 78.8664 294.097 85.5112 289.524C84.7746 259.661 84.0533 229.798 83.3167 199.935C77.6694 202.267 70.1806 205.735 61.8018 210.784C53.4076 215.864 49.7245 219.148 46.1796 217.736C41.4838 215.864 39.5809 206.717 41.1461 200.395C44.0772 188.548 60.7275 180.353 82.7949 178.911C82.3806 161.693 81.9509 144.49 81.5366 127.272C57.5049 137.584 50.0314 137.538 48.2206 134.914C46.0108 131.707 51.7962 123.85 55.694 119.982C65.0397 110.667 77.4852 110.33 81.1222 110.361C80.2321 73.8986 79.3421 37.4367 78.4367 0.974854C72.2062 4.82668 62.4309 10.8116 50.2616 17.9935C38.1844 25.114 30.6188 29.3649 29.207 30.2089Z" fill="#1F1300"/>
</svg>
