<svg width="202" height="294" viewBox="0 0 202 294" fill="none" xmlns="http://www.w3.org/2000/svg">
<path d="M49.5545 5.15394C33.9017 4.04904 17.589 2.8981 11.7269 11.8448C4.95933 22.1879 18.1108 36.7972 14.351 61.4274C13.4149 67.5197 12.6016 71.617 10.3611 76.9267C6.20235 86.7328 0.954033 89.7099 0.539694 102.861C0.0486249 118.714 22.1314 153.38 28.1623 171.918C42.035 214.58 -7.16394 244.964 10.1923 273.984C18.8013 288.378 39.0886 294.624 54.3271 292.997C70.1794 291.294 80.4612 281.058 90.3133 271.267C108.636 253.036 116.079 232.089 118.151 225.751C127.374 197.484 121.604 178.563 132.99 173.268C137.594 171.12 143.84 171.764 147.354 174.864C156.347 182.813 150.116 209.316 138.684 227.163C133.635 235.036 128.617 239.578 125.808 250.197C124.565 254.847 122.217 263.717 125.302 270.561C133.282 288.347 177.662 292.23 189.463 276.163C198.241 264.208 182.619 249.875 174.7 215.577C164.004 169.248 176.112 123.824 187.422 80.134C197.658 40.6643 206.328 28.0654 197.903 15.9268C185.35 -2.1507 144.592 -5.12782 126.407 12.4586C110.309 28.05 124.12 47.9997 111.061 102.861C109.143 110.887 97.8941 158.214 83.4383 158.107C77.1771 158.061 71.714 149.037 69.627 144.295C64.6395 132.97 68.1231 121.445 69.627 116.673C86.9525 61.6576 105.552 36.1066 96.4363 20.0855C89.5153 7.97758 69.8111 6.58111 49.5545 5.15394Z" fill="#1F1300"/>
</svg>
