<svg width="138" height="278" viewBox="0 0 138 278" fill="none" xmlns="http://www.w3.org/2000/svg">
<path d="M129.967 6.4635C119.777 -3.84895 101.439 0.49395 64.793 9.17973C44.2295 14.0444 38.9505 18.0804 36.7713 19.9219C22.7452 31.7382 21.4715 49.785 19.1389 69.2589C10.7447 139.359 -0.534545 139.635 0.294134 188.405C0.64709 209.168 2.8876 226.324 12.0031 243.911C17.1593 253.855 23.8654 266.776 37.2624 273.175C60.4808 284.286 93.1522 270.689 110.278 251.031C145.067 211.086 124.657 135.63 103.142 130.351C97.0807 128.862 91.0344 132.975 90.4206 133.405C73.6629 145.114 86.6609 181.33 74.5069 186.763C69.4734 189.018 63.1356 184.614 61.3862 183.432C46.8229 173.58 49.002 146.802 52.7311 132.515C59.7441 105.583 81.0289 89.8838 86.3386 86.1855C105.275 72.9726 112.872 77.1314 123.506 65.1769C137.932 48.987 142.474 19.1239 129.967 6.4635Z" fill="#1F1300"/>
</svg>
