<svg width="86" height="303" viewBox="0 0 86 303" fill="none" xmlns="http://www.w3.org/2000/svg">
<path d="M79 0C74.3502 2.16377 64.6234 8.71335 55.7688 12.335C42.909 17.5986 41.2977 17.3685 38.9958 19.4708C27.9467 29.5071 34.9905 45.1446 32.351 65.8001C27.5631 103.198 -2.25404 106.405 0.953254 133.353C2.81011 148.99 12.9077 148.361 21.6549 178.332C24.2791 187.324 25.5221 194.752 31.3228 197.176C41.0982 201.258 52.8378 186.526 56.6129 189.703C60.1578 192.695 54.8788 210.052 42.3565 216.865C35.988 220.333 33.7782 217.786 29.113 220.932C19.1995 227.638 25.9825 241.311 17.9105 260.985C11.1583 277.451 1.24484 280.428 3.31654 288.822C5.37289 297.17 17.6036 304.03 26.228 301.544C37.0161 298.444 42.2338 280.735 45.748 268.78C48.9399 257.931 50.0755 247.542 58.3009 242.984C59.7127 242.201 61.4775 241.25 62.7205 241.971C66.7258 244.273 58.8994 260.125 58.6539 283.727C58.5771 290.265 58.9762 300.884 62.8894 302.05C67.8461 303.539 79.4933 286.231 86 274C83.7748 182.815 81.2405 91.2161 79 0ZM53.9427 152.259C43.9218 152.044 36.2949 141.287 33.5326 133.752C26.5502 114.646 40.9754 89.0492 50.8428 89.4482C61.6003 89.8779 66.9253 121.26 67.2936 123.562C68.6134 131.68 70.3321 143.205 63.5646 149.021C59.8355 152.244 55.1243 152.29 53.9427 152.259Z" fill="#1F1300"/>
</svg>
