<svg width="74" height="284" viewBox="0 0 74 284" fill="none" xmlns="http://www.w3.org/2000/svg">
<path d="M67.3726 124.02C76.9791 112.925 74.2629 96.8575 69.3829 68.0379C65.6999 46.2928 61.6025 22.0616 45.6274 15.0792C41.3613 13.2224 38.0159 13.3605 25.9386 8.97155C17.6672 5.96375 11.0838 2.94061 6.77161 0.822876C4.77664 89.5376 2.78167 178.237 0.771357 266.952C2.38268 269.33 12.1734 283.387 27.1203 283.755C43.3409 284.17 53.6533 268.195 59.6996 258.803C70.1195 242.659 79.1736 214.975 68.8611 205.844C57.8121 196.069 35.9595 217.722 21.1507 207.885C5.89689 197.757 5.39048 159.039 23.5447 141.177C37.9238 127.058 55.3567 137.908 67.3726 124.02Z" fill="#1F1300"/>
</svg>
