<svg width="582" height="495" viewBox="0 0 582 495" fill="none" xmlns="http://www.w3.org/2000/svg">
<path d="M32.6113 315.437C66.3665 339.279 93.1609 345.378 93.1609 345.378C93.1609 345.378 108.214 407.684 138.386 451.298C181.941 514.256 279.395 504.683 334.238 451.298C377.535 409.151 370.493 390.665 370.493 390.665C370.493 390.665 421.006 421.221 466.923 420.982C519.041 420.71 574.51 342.855 581.295 291.109C590.329 222.21 510.826 119.827 442.629 106.966C397.101 98.3805 352.178 125.306 352.178 125.306C352.178 125.306 347.952 12.3084 286.022 1.42141C254.461 -4.12699 233.894 7.13192 207.532 25.3749C155.396 61.4544 129.416 140.277 129.416 140.277C129.416 140.277 89.852 138.823 50.9257 155.248C-7.02053 179.698 -18.7724 279.143 32.6113 315.437Z" fill="white"/>
</svg>
