<svg width="633" height="522" viewBox="0 0 633 522" fill="none" xmlns="http://www.w3.org/2000/svg">
<path d="M177.885 147.5C177.885 147.5 209.446 20.7124 264.275 6.32208C297.502 -2.39882 322 -3.75721 351.991 12.9883C398.224 38.8026 406.355 112.982 406.355 112.982C406.355 112.982 450.198 100.848 488.402 99.3158C524.537 97.8666 547.602 106.754 576.119 128.98C614.8 159.129 641.804 194.686 630.15 242.306C618.923 288.177 576.119 316.635 576.119 316.635C576.119 316.635 591.957 331.674 609.805 359.632C633.17 396.233 623.696 434.482 599.132 470.291C563.557 522.15 490.919 539.612 441.042 501.289C409.85 477.323 394.682 458.625 394.682 458.625C394.682 458.625 376.032 480.148 338.65 501.289C276.26 536.572 203.762 500.15 165.885 439.293C143.971 404.085 145.885 335 145.885 335C145.885 335 77.3021 355.36 42.3852 335C-17.4964 300.083 -10.657 202.126 42.3852 157.5C82.9867 123.34 177.885 147.5 177.885 147.5Z" fill="white"/>
</svg>
