<svg width="635" height="524" viewBox="0 0 635 524" fill="none" xmlns="http://www.w3.org/2000/svg">
<path d="M456.52 148.065C456.52 148.065 424.854 20.7918 369.842 6.3463C336.504 -2.40801 311.924 -3.77161 281.833 13.0381C235.445 38.9512 227.287 113.414 227.287 113.414C227.287 113.414 183.297 101.234 144.966 99.6963C108.71 98.2415 85.5677 107.163 56.956 129.475C18.1455 159.739 -8.94828 195.432 2.74471 243.235C14.0083 289.282 56.956 317.848 56.956 317.848C56.956 317.848 41.0649 332.945 23.1575 361.01C-0.286082 397.751 9.21969 436.147 33.866 472.093C69.5593 524.15 142.44 541.68 192.484 503.209C223.78 479.151 238.999 460.382 238.999 460.382C238.999 460.382 257.711 481.988 295.218 503.209C357.816 538.628 430.557 502.066 468.56 440.976C490.547 405.633 488.627 336.284 488.627 336.284C488.627 336.284 557.44 356.722 592.473 336.284C652.555 301.233 645.693 202.901 592.473 158.103C551.736 123.813 456.52 148.065 456.52 148.065Z" fill="white"/>
</svg>
