<svg width="602" height="511" viewBox="0 0 602 511" fill="none" xmlns="http://www.w3.org/2000/svg">
<path d="M33.732 185.368C68.6472 160.755 96.3623 154.458 96.3623 154.458C96.3623 154.458 111.932 90.1388 143.142 45.1149C188.193 -19.8782 288.996 -9.99579 345.724 45.1149C390.509 88.6237 383.224 107.707 383.224 107.707C383.224 107.707 435.473 76.1638 482.969 76.4109C536.878 76.6913 594.252 157.063 601.271 210.482C610.615 281.608 528.38 387.299 457.839 400.576C410.747 409.44 364.281 381.644 364.281 381.644C364.281 381.644 359.909 498.294 295.851 509.533C263.205 515.26 241.931 503.638 214.664 484.805C160.736 447.559 133.863 366.189 133.863 366.189C133.863 366.189 92.9397 367.69 52.6757 350.734C-7.26181 325.494 -19.4176 222.835 33.732 185.368Z" fill="white"/>
</svg>
